<svg id="Layer_1" data-name="Layer 1" xmlns="http://www.w3.org/2000/svg" viewBox="0 0 229 223.5"><defs><style>.cls-1,.cls-2{fill:none;stroke:#fff;stroke-linecap:round;stroke-width:10px;}.cls-1{stroke-miterlimit:10;}.cls-2{stroke-linejoin:round;}</style></defs><title>forest_plus_icon</title><polyline class="cls-1" points="69.5 112.5 69.5 154.444 69.5 218.5"/><polyline class="cls-2" points="69 5 18 70 46 70 5 112 37 112 5 155 69 155"/><polyline class="cls-2" points="70 5 121 70 93 70 134 112 102 112 134 155 87 155"/><path class="cls-2" d="M189,147.667v-9.334A7.333,7.333,0,0,0,181.667,131H171.333A7.333,7.333,0,0,1,164,123.667v-9.334A7.333,7.333,0,0,1,171.333,107h10.334A7.333,7.333,0,0,0,189,99.667V90.333A7.333,7.333,0,0,1,196.333,83h9.334A7.333,7.333,0,0,1,213,90.333v9.334A7.333,7.333,0,0,0,220.333,107h9.334A7.333,7.333,0,0,1,237,114.333v9.334A7.333,7.333,0,0,1,229.667,131h-9.334A7.333,7.333,0,0,0,213,138.333v9.334A7.333,7.333,0,0,1,205.667,155h-9.334A7.333,7.333,0,0,1,189,147.667Z" transform="translate(-13 -16)"/></svg>